<svg width="109" height="55" viewBox="0 0 109 55" fill="none" xmlns="http://www.w3.org/2000/svg">
<path d="M13.2 11.68H18.36L30.68 40H23.64L21.2 34H10.2L7.84 40H0.96L13.2 11.68ZM15.6 19.92L12.16 28.72H19.08L15.6 19.92ZM32.8484 9.76H38.8484V40H32.8484V9.76ZM43.2391 20.56H49.2391V40H43.2391V20.56ZM42.7591 14.44C42.7591 13.48 43.0924 12.6667 43.7591 12C44.4524 11.3067 45.2791 10.96 46.2391 10.96C47.1991 10.96 48.0124 11.3067 48.6791 12C49.3724 12.6667 49.7191 13.48 49.7191 14.44C49.7191 15.4 49.3724 16.2267 48.6791 16.92C48.0124 17.5867 47.1991 17.92 46.2391 17.92C45.2791 17.92 44.4524 17.5867 43.7591 16.92C43.0924 16.2267 42.7591 15.4 42.7591 14.44ZM51.5097 20.56H57.9897L62.9097 33.76H62.9897L67.5497 20.56H73.5897L65.9097 40H59.5497L51.5097 20.56ZM75.8563 20.56H81.8563V40H75.8563V20.56ZM75.3763 14.44C75.3763 13.48 75.7096 12.6667 76.3763 12C77.0696 11.3067 77.8963 10.96 78.8563 10.96C79.8163 10.96 80.6296 11.3067 81.2963 12C81.9896 12.6667 82.3363 13.48 82.3363 14.44C82.3363 15.4 81.9896 16.2267 81.2963 16.92C80.6296 17.5867 79.8163 17.92 78.8563 17.92C77.8963 17.92 77.0696 17.5867 76.3763 16.92C75.7096 16.2267 75.3763 15.4 75.3763 14.44ZM85.4469 30.28C85.4469 28.7333 85.7269 27.3333 86.2869 26.08C86.8469 24.8267 87.6069 23.76 88.5669 22.88C89.5535 21.9733 90.7002 21.28 92.0069 20.8C93.3402 20.32 94.7535 20.08 96.2469 20.08C97.7402 20.08 99.1402 20.32 100.447 20.8C101.78 21.28 102.927 21.9733 103.887 22.88C104.874 23.76 105.647 24.8267 106.207 26.08C106.767 27.3333 107.047 28.7333 107.047 30.28C107.047 31.8267 106.767 33.2267 106.207 34.48C105.647 35.7333 104.874 36.8133 103.887 37.72C102.927 38.6 101.78 39.28 100.447 39.76C99.1402 40.24 97.7402 40.48 96.2469 40.48C94.7535 40.48 93.3402 40.24 92.0069 39.76C90.7002 39.28 89.5535 38.6 88.5669 37.72C87.6069 36.8133 86.8469 35.7333 86.2869 34.48C85.7269 33.2267 85.4469 31.8267 85.4469 30.28ZM91.4469 30.28C91.4469 31.7467 91.8602 32.9333 92.6869 33.84C93.5402 34.7467 94.7269 35.2 96.2469 35.2C97.7669 35.2 98.9402 34.7467 99.7669 33.84C100.62 32.9333 101.047 31.7467 101.047 30.28C101.047 28.8133 100.62 27.6267 99.7669 26.72C98.9402 25.8133 97.7669 25.36 96.2469 25.36C94.7269 25.36 93.5402 25.8133 92.6869 26.72C91.8602 27.6267 91.4469 28.8133 91.4469 30.28Z" fill="white"/>
</svg>
