<svg width="63" height="64" viewBox="0 0 63 64" fill="none" xmlns="http://www.w3.org/2000/svg">
<g clip-path="url(#clip0_1_31)">
<path d="M31.7772 0.979889C14.6112 0.979889 0.647339 14.9451 0.647339 32.1098C0.647339 49.2745 14.6112 63.2397 31.7772 63.2397C48.9433 63.2397 62.9071 49.2745 62.9071 32.1098C62.9071 14.9451 48.9433 0.979889 31.7772 0.979889ZM31.7772 60.6456C16.0425 60.6456 3.24146 47.8445 3.24146 32.1098C3.24146 16.3751 16.0425 3.57401 31.7772 3.57401C47.5119 3.57401 60.313 16.3751 60.313 32.1098C60.313 47.8445 47.5119 60.6456 31.7772 60.6456Z" fill="white"/>
<path d="M44.153 31.0191L25.994 19.3454C25.5962 19.0858 25.082 19.0718 24.6716 19.2973C24.2535 19.5253 23.9951 19.9611 23.9951 20.4361V43.7835C23.9951 44.2585 24.2535 44.6943 24.6716 44.9223C24.864 45.0275 25.0794 45.0806 25.2922 45.0806C25.5354 45.0806 25.7812 45.0121 25.994 44.8741L44.153 33.2004C44.5229 32.9623 44.7484 32.5506 44.7484 32.1098C44.7484 31.669 44.5229 31.2574 44.153 31.0191ZM26.5892 41.4072V22.8124L41.0522 32.1098L26.5892 41.4072Z" fill="white"/>
</g>
<defs>
<clipPath id="clip0_1_31">
<rect width="62.2598" height="62.2598" fill="white" transform="translate(0.647339 0.979889)"/>
</clipPath>
</defs>
</svg>
